%TF.GenerationSoftware,KiCad,Pcbnew,8.0.0-dirty*%
%TF.CreationDate,2024-03-12T22:33:29-04:00*%
%TF.ProjectId,MotorDriverVNH,4d6f746f-7244-4726-9976-6572564e482e,rev?*%
%TF.SameCoordinates,Original*%
%TF.FileFunction,Legend,Bot*%
%TF.FilePolarity,Positive*%
%FSLAX46Y46*%
G04 Gerber Fmt 4.6, Leading zero omitted, Abs format (unit mm)*
G04 Created by KiCad (PCBNEW 8.0.0-dirty) date 2024-03-12 22:33:29*
%MOMM*%
%LPD*%
G01*
G04 APERTURE LIST*
%ADD10C,0.150000*%
%ADD11C,0.120000*%
G04 APERTURE END LIST*
D10*
X84640833Y-64526819D02*
X84640833Y-65241104D01*
X84640833Y-65241104D02*
X84688452Y-65383961D01*
X84688452Y-65383961D02*
X84783690Y-65479200D01*
X84783690Y-65479200D02*
X84926547Y-65526819D01*
X84926547Y-65526819D02*
X85021785Y-65526819D01*
X83640833Y-65526819D02*
X84212261Y-65526819D01*
X83926547Y-65526819D02*
X83926547Y-64526819D01*
X83926547Y-64526819D02*
X84021785Y-64669676D01*
X84021785Y-64669676D02*
X84117023Y-64764914D01*
X84117023Y-64764914D02*
X84212261Y-64812533D01*
X79204819Y-70433333D02*
X78728628Y-70100000D01*
X79204819Y-69861905D02*
X78204819Y-69861905D01*
X78204819Y-69861905D02*
X78204819Y-70242857D01*
X78204819Y-70242857D02*
X78252438Y-70338095D01*
X78252438Y-70338095D02*
X78300057Y-70385714D01*
X78300057Y-70385714D02*
X78395295Y-70433333D01*
X78395295Y-70433333D02*
X78538152Y-70433333D01*
X78538152Y-70433333D02*
X78633390Y-70385714D01*
X78633390Y-70385714D02*
X78681009Y-70338095D01*
X78681009Y-70338095D02*
X78728628Y-70242857D01*
X78728628Y-70242857D02*
X78728628Y-69861905D01*
X78204819Y-70766667D02*
X78204819Y-71385714D01*
X78204819Y-71385714D02*
X78585771Y-71052381D01*
X78585771Y-71052381D02*
X78585771Y-71195238D01*
X78585771Y-71195238D02*
X78633390Y-71290476D01*
X78633390Y-71290476D02*
X78681009Y-71338095D01*
X78681009Y-71338095D02*
X78776247Y-71385714D01*
X78776247Y-71385714D02*
X79014342Y-71385714D01*
X79014342Y-71385714D02*
X79109580Y-71338095D01*
X79109580Y-71338095D02*
X79157200Y-71290476D01*
X79157200Y-71290476D02*
X79204819Y-71195238D01*
X79204819Y-71195238D02*
X79204819Y-70909524D01*
X79204819Y-70909524D02*
X79157200Y-70814286D01*
X79157200Y-70814286D02*
X79109580Y-70766667D01*
X71707333Y-63672819D02*
X71707333Y-64387104D01*
X71707333Y-64387104D02*
X71754952Y-64529961D01*
X71754952Y-64529961D02*
X71850190Y-64625200D01*
X71850190Y-64625200D02*
X71993047Y-64672819D01*
X71993047Y-64672819D02*
X72088285Y-64672819D01*
X71326380Y-63672819D02*
X70707333Y-63672819D01*
X70707333Y-63672819D02*
X71040666Y-64053771D01*
X71040666Y-64053771D02*
X70897809Y-64053771D01*
X70897809Y-64053771D02*
X70802571Y-64101390D01*
X70802571Y-64101390D02*
X70754952Y-64149009D01*
X70754952Y-64149009D02*
X70707333Y-64244247D01*
X70707333Y-64244247D02*
X70707333Y-64482342D01*
X70707333Y-64482342D02*
X70754952Y-64577580D01*
X70754952Y-64577580D02*
X70802571Y-64625200D01*
X70802571Y-64625200D02*
X70897809Y-64672819D01*
X70897809Y-64672819D02*
X71183523Y-64672819D01*
X71183523Y-64672819D02*
X71278761Y-64625200D01*
X71278761Y-64625200D02*
X71326380Y-64577580D01*
X80366666Y-79304819D02*
X80699999Y-78828628D01*
X80938094Y-79304819D02*
X80938094Y-78304819D01*
X80938094Y-78304819D02*
X80557142Y-78304819D01*
X80557142Y-78304819D02*
X80461904Y-78352438D01*
X80461904Y-78352438D02*
X80414285Y-78400057D01*
X80414285Y-78400057D02*
X80366666Y-78495295D01*
X80366666Y-78495295D02*
X80366666Y-78638152D01*
X80366666Y-78638152D02*
X80414285Y-78733390D01*
X80414285Y-78733390D02*
X80461904Y-78781009D01*
X80461904Y-78781009D02*
X80557142Y-78828628D01*
X80557142Y-78828628D02*
X80938094Y-78828628D01*
X79414285Y-79304819D02*
X79985713Y-79304819D01*
X79699999Y-79304819D02*
X79699999Y-78304819D01*
X79699999Y-78304819D02*
X79795237Y-78447676D01*
X79795237Y-78447676D02*
X79890475Y-78542914D01*
X79890475Y-78542914D02*
X79985713Y-78590533D01*
X75366666Y-68504819D02*
X75699999Y-68028628D01*
X75938094Y-68504819D02*
X75938094Y-67504819D01*
X75938094Y-67504819D02*
X75557142Y-67504819D01*
X75557142Y-67504819D02*
X75461904Y-67552438D01*
X75461904Y-67552438D02*
X75414285Y-67600057D01*
X75414285Y-67600057D02*
X75366666Y-67695295D01*
X75366666Y-67695295D02*
X75366666Y-67838152D01*
X75366666Y-67838152D02*
X75414285Y-67933390D01*
X75414285Y-67933390D02*
X75461904Y-67981009D01*
X75461904Y-67981009D02*
X75557142Y-68028628D01*
X75557142Y-68028628D02*
X75938094Y-68028628D01*
X74985713Y-67600057D02*
X74938094Y-67552438D01*
X74938094Y-67552438D02*
X74842856Y-67504819D01*
X74842856Y-67504819D02*
X74604761Y-67504819D01*
X74604761Y-67504819D02*
X74509523Y-67552438D01*
X74509523Y-67552438D02*
X74461904Y-67600057D01*
X74461904Y-67600057D02*
X74414285Y-67695295D01*
X74414285Y-67695295D02*
X74414285Y-67790533D01*
X74414285Y-67790533D02*
X74461904Y-67933390D01*
X74461904Y-67933390D02*
X75033332Y-68504819D01*
X75033332Y-68504819D02*
X74414285Y-68504819D01*
D11*
%TO.C,J1*%
X82977500Y-68672000D02*
X82977500Y-71272000D01*
X85637500Y-66072000D02*
X84307500Y-66072000D01*
X85637500Y-67402000D02*
X85637500Y-66072000D01*
X85637500Y-68672000D02*
X82977500Y-68672000D01*
X85637500Y-68672000D02*
X85637500Y-71272000D01*
X85637500Y-71272000D02*
X82977500Y-71272000D01*
%TO.C,R3*%
X79665000Y-70827064D02*
X79665000Y-70372936D01*
X81135000Y-70827064D02*
X81135000Y-70372936D01*
%TO.C,J3*%
X70044000Y-67818000D02*
X70044000Y-78038000D01*
X72704000Y-65218000D02*
X71374000Y-65218000D01*
X72704000Y-66548000D02*
X72704000Y-65218000D01*
X72704000Y-67818000D02*
X70044000Y-67818000D01*
X72704000Y-67818000D02*
X72704000Y-78038000D01*
X72704000Y-78038000D02*
X70044000Y-78038000D01*
%TO.C,R1*%
X80427064Y-76465000D02*
X79972936Y-76465000D01*
X80427064Y-77935000D02*
X79972936Y-77935000D01*
%TO.C,R2*%
X75427064Y-65665000D02*
X74972936Y-65665000D01*
X75427064Y-67135000D02*
X74972936Y-67135000D01*
%TD*%
M02*
